<svg width="28" height="28" viewBox="0 0 28 28" fill="none" xmlns="http://www.w3.org/2000/svg">
<circle cx="14" cy="14" r="14" fill="#07B53B"/>
<path d="M20.6574 17.3732C21.8993 16.0278 22.4685 14.6825 22.4685 13.1819C22.4685 9.40463 18.6912 6.3 14.0342 6.3C9.3773 6.3 5.60001 9.40463 5.60001 13.1819C5.60001 16.5453 8.60114 19.3912 12.6372 19.9086C13.6203 20.1156 13.5168 20.4778 13.3098 21.8231C13.2581 22.0301 13.1028 22.651 14.0342 22.2888C14.9139 21.9266 18.8981 19.4429 20.6574 17.3732Z" fill="white"/>
<path d="M16.3628 11.3709C16.4663 11.3191 16.5698 11.4226 16.5698 11.5261V15.1999C16.5698 15.3034 16.4663 15.3551 16.3628 15.3551H15.7936C15.7419 15.3551 15.6901 15.3034 15.6384 15.3034L13.9826 13.0267V15.1999C13.9826 15.3034 13.8791 15.3551 13.8273 15.3551H13.2064C13.1029 15.3551 13.0512 15.3034 13.0512 15.1999V11.5261C13.0512 11.4226 13.1029 11.3709 13.2064 11.3709H13.8273C13.8791 11.3709 13.9308 11.3709 13.9308 11.4226L15.6384 13.6993V11.5261C15.6384 11.4226 15.6901 11.3709 15.7936 11.3709H16.3628Z" fill="#07B53B"/>
<path d="M11.7059 11.3191H12.3268C12.3785 11.3191 12.482 11.4226 12.482 11.5261V15.1999C12.482 15.3034 12.3785 15.3551 12.3268 15.3551H11.7059C11.6024 15.3551 11.5506 15.3034 11.5506 15.1999V11.5261C11.5506 11.4226 11.6024 11.3191 11.7059 11.3191Z" fill="#07B53B"/>
<path d="M9.2739 14.4237H10.878C10.9814 14.4237 11.0332 14.5272 11.0332 14.579V15.1999C11.0332 15.2516 10.9814 15.3551 10.878 15.3551H8.49775C8.446 15.3551 8.446 15.3034 8.39426 15.3034C8.39426 15.2516 8.34251 15.2516 8.34251 15.1999V11.5261C8.34251 11.4226 8.446 11.3191 8.49775 11.3191H9.11867C9.22216 11.3191 9.2739 11.4226 9.2739 11.5261V14.4237Z" fill="#07B53B"/>
<path d="M17.2942 11.3191H19.6744C19.7261 11.3191 19.8296 11.4226 19.8296 11.5261V12.0953C19.8296 12.1988 19.7261 12.2505 19.6744 12.2505H18.0703V12.8714H19.6744C19.7261 12.8714 19.8296 12.9749 19.8296 13.0267V13.6476C19.8296 13.7511 19.7261 13.8028 19.6744 13.8028H18.0703V14.4237H19.6744C19.7261 14.4237 19.8296 14.5272 19.8296 14.579V15.1999C19.8296 15.3034 19.7261 15.3551 19.6744 15.3551H17.2942C17.1907 15.3551 17.1389 15.2516 17.1389 15.1999V11.5261C17.1389 11.4226 17.1907 11.3191 17.2942 11.3191Z" fill="#07B53B"/>
</svg>
