<svg width="16" height="16" viewBox="0 0 16 16" fill="none" xmlns="http://www.w3.org/2000/svg">
<path d="M7.51666 12.7833H8.43333V11.9167C9.11111 11.8389 9.63888 11.6306 10.0167 11.2917C10.3944 10.9528 10.5833 10.5 10.5833 9.93334C10.5833 9.36668 10.4222 8.90557 10.1 8.55001C9.77777 8.19445 9.23333 7.85557 8.46666 7.53334C7.82222 7.26668 7.35555 7.02779 7.06666 6.81668C6.77777 6.60557 6.63333 6.32223 6.63333 5.96668C6.63333 5.62223 6.75833 5.35001 7.00833 5.15001C7.25833 4.95001 7.59999 4.85001 8.03333 4.85001C8.36666 4.85001 8.65555 4.92779 8.89999 5.08334C9.14444 5.2389 9.34999 5.47223 9.51666 5.78334L10.3167 5.40001C10.1278 5.01112 9.87777 4.70557 9.56666 4.48334C9.25555 4.26112 8.88888 4.12779 8.46666 4.08334V3.23334H7.54999V4.08334C6.98333 4.16112 6.53611 4.36945 6.20833 4.70834C5.88055 5.04723 5.71666 5.46668 5.71666 5.96668C5.71666 6.51112 5.88333 6.94445 6.21666 7.26668C6.54999 7.5889 7.04999 7.8889 7.71666 8.16668C8.46111 8.47779 8.97222 8.75834 9.24999 9.00834C9.52777 9.25834 9.66666 9.56668 9.66666 9.93334C9.66666 10.2889 9.51944 10.575 9.22499 10.7917C8.93055 11.0083 8.56111 11.1167 8.11666 11.1167C7.68333 11.1167 7.29722 10.9945 6.95833 10.75C6.61944 10.5056 6.38333 10.1722 6.24999 9.75001L5.39999 10.0333C5.63333 10.5445 5.91944 10.9472 6.25833 11.2417C6.59722 11.5361 7.01666 11.75 7.51666 11.8833V12.7833ZM7.99999 14.6667C7.08888 14.6667 6.22777 14.4917 5.41666 14.1417C4.60555 13.7917 3.89722 13.3139 3.29166 12.7083C2.68611 12.1028 2.20833 11.3945 1.85833 10.5833C1.50833 9.77223 1.33333 8.91112 1.33333 8.00001C1.33333 7.07779 1.50833 6.21112 1.85833 5.40001C2.20833 4.5889 2.68611 3.88334 3.29166 3.28334C3.89722 2.68334 4.60555 2.20834 5.41666 1.85834C6.22777 1.50834 7.08888 1.33334 7.99999 1.33334C8.92222 1.33334 9.78888 1.50834 10.6 1.85834C11.4111 2.20834 12.1167 2.68334 12.7167 3.28334C13.3167 3.88334 13.7917 4.5889 14.1417 5.40001C14.4917 6.21112 14.6667 7.07779 14.6667 8.00001C14.6667 8.91112 14.4917 9.77223 14.1417 10.5833C13.7917 11.3945 13.3167 12.1028 12.7167 12.7083C12.1167 13.3139 11.4111 13.7917 10.6 14.1417C9.78888 14.4917 8.92222 14.6667 7.99999 14.6667ZM7.99999 13.6667C9.57777 13.6667 10.9167 13.1139 12.0167 12.0083C13.1167 10.9028 13.6667 9.56668 13.6667 8.00001C13.6667 6.42223 13.1167 5.08334 12.0167 3.98334C10.9167 2.88334 9.57777 2.33334 7.99999 2.33334C6.43333 2.33334 5.09722 2.88334 3.99166 3.98334C2.88611 5.08334 2.33333 6.42223 2.33333 8.00001C2.33333 9.56668 2.88611 10.9028 3.99166 12.0083C5.09722 13.1139 6.43333 13.6667 7.99999 13.6667Z" fill="white"/>
</svg>
