<svg width="480" height="20" viewBox="0 0 480 20" fill="none" xmlns="http://www.w3.org/2000/svg">
<line x1="-8.74228e-08" y1="9" x2="204" y2="8.99998" stroke="#B7DB6A" stroke-width="2"/>
<path d="M239.88 2H235.32L229.86 8.54C228.6 10.04 228 11.48 228 13.1C228 16.34 230.52 18.86 233.76 18.86C236.88 18.86 239.4 16.4 239.4 13.34C239.4 10.82 237.9 9.26 234.84 8.54L239.88 2ZM252.36 2H247.86L242.34 8.54C241.08 10.1 240.48 11.48 240.48 13.1C240.48 16.34 243 18.86 246.24 18.86C249.36 18.86 251.88 16.4 251.88 13.34C251.88 10.82 250.38 9.26 247.32 8.54L252.36 2Z" fill="#B7DB6A"/>
<line x1="276" y1="9" x2="480" y2="8.99998" stroke="#B7DB6A" stroke-width="2"/>
</svg>
