<svg width="28" height="28" viewBox="0 0 28 28" fill="none" xmlns="http://www.w3.org/2000/svg">
<circle cx="14" cy="14" r="14" fill="#07B53B"/>
<path d="M20.6574 17.3731C21.8992 16.0278 22.4684 14.6825 22.4684 13.1819C22.4684 9.40461 18.6911 6.29999 14.0342 6.29999C9.37727 6.29999 5.59998 9.40461 5.59998 13.1819C5.59998 16.5452 8.60111 19.3911 12.6371 19.9086C13.6203 20.1156 13.5168 20.4778 13.3098 21.8231C13.258 22.0301 13.1028 22.651 14.0342 22.2888C14.9138 21.9266 18.8981 19.4429 20.6574 17.3731Z" fill="white"/>
<path d="M16.3628 11.3708C16.4663 11.3191 16.5698 11.4226 16.5698 11.5261V15.1999C16.5698 15.3034 16.4663 15.3551 16.3628 15.3551H15.7936C15.7419 15.3551 15.6901 15.3034 15.6384 15.3034L13.9826 13.0266V15.1999C13.9826 15.3034 13.8791 15.3551 13.8274 15.3551H13.2064C13.103 15.3551 13.0512 15.3034 13.0512 15.1999V11.5261C13.0512 11.4226 13.103 11.3708 13.2064 11.3708H13.8274C13.8791 11.3708 13.9309 11.3708 13.9309 11.4226L15.6384 13.6993V11.5261C15.6384 11.4226 15.6901 11.3708 15.7936 11.3708H16.3628Z" fill="#07B53B"/>
<path d="M11.7059 11.3191H12.3268C12.3785 11.3191 12.482 11.4226 12.482 11.5261V15.1999C12.482 15.3034 12.3785 15.3551 12.3268 15.3551H11.7059C11.6024 15.3551 11.5506 15.3034 11.5506 15.1999V11.5261C11.5506 11.4226 11.6024 11.3191 11.7059 11.3191Z" fill="#07B53B"/>
<path d="M9.27392 14.4237H10.878C10.9815 14.4237 11.0332 14.5272 11.0332 14.5789V15.1999C11.0332 15.2516 10.9815 15.3551 10.878 15.3551H8.49776C8.44602 15.3551 8.44602 15.3034 8.39427 15.3034C8.39427 15.2516 8.34253 15.2516 8.34253 15.1999V11.5261C8.34253 11.4226 8.44602 11.3191 8.49776 11.3191H9.11869C9.22217 11.3191 9.27392 11.4226 9.27392 11.5261V14.4237Z" fill="#07B53B"/>
<path d="M17.2942 11.3191H19.6744C19.7261 11.3191 19.8296 11.4226 19.8296 11.5261V12.0952C19.8296 12.1987 19.7261 12.2505 19.6744 12.2505H18.0703V12.8714H19.6744C19.7261 12.8714 19.8296 12.9749 19.8296 13.0266V13.6476C19.8296 13.751 19.7261 13.8028 19.6744 13.8028H18.0703V14.4237H19.6744C19.7261 14.4237 19.8296 14.5272 19.8296 14.5789V15.1999C19.8296 15.3034 19.7261 15.3551 19.6744 15.3551H17.2942C17.1907 15.3551 17.139 15.2516 17.139 15.1999V11.5261C17.139 11.4226 17.1907 11.3191 17.2942 11.3191Z" fill="#07B53B"/>
</svg>
