<svg  viewBox="0 0 107 46" fill="none" xmlns="http://www.w3.org/2000/svg">
<g clip-path="url(#clip0_34_580)">
<path d="M22.6208 0.822695C25.4844 0.820122 28.3206 1.38182 30.9672 2.47573C33.6137 3.56963 36.0187 5.17428 38.0448 7.198C40.071 9.22171 41.6785 11.6248 42.7756 14.27C43.8727 16.9153 44.4378 19.7507 44.4386 22.6144C44.4386 28.3945 42.1429 33.938 38.0564 38.0258C33.9698 42.1135 28.427 44.4109 22.6469 44.4126C19.7846 44.4126 16.9504 43.8487 14.3061 42.7532C11.6618 41.6576 9.25917 40.0519 7.23554 38.0277C5.21191 36.0034 3.60687 33.6004 2.51212 30.9557C1.41736 28.3111 0.854341 25.4767 0.855199 22.6144C0.855199 16.8349 3.15112 11.2921 7.23785 7.20533C11.3246 3.11859 16.8674 0.822695 22.6469 0.822695H22.6208ZM22.6469 0.000113706C19.6749 -0.00934588 16.7307 0.571517 13.985 1.70901C11.2393 2.8465 8.74694 4.51797 6.6524 6.62641C4.54591 8.72105 2.87565 11.2126 1.73827 13.9569C0.600881 16.7012 0.0189311 19.6437 0.0260827 22.6144C0.0180673 25.5861 0.599621 28.53 1.73703 31.2754C2.87444 34.0209 4.54513 36.5135 6.6524 38.6089C8.74694 40.7173 11.2393 42.3888 13.985 43.5263C16.7307 44.6638 19.6749 45.2447 22.6469 45.2352C25.6186 45.2432 28.5624 44.6617 31.3079 43.5243C34.0534 42.3869 36.546 40.7162 38.6414 38.6089C40.7478 36.5132 42.4175 34.0204 43.5538 31.2749C44.6901 28.5294 45.2704 25.5857 45.2612 22.6144C45.2696 19.6441 44.6888 16.7017 43.5525 13.9574C42.4162 11.2131 40.747 8.72137 38.6414 6.62641C36.546 4.51914 34.0534 2.84845 31.3079 1.71104C28.5624 0.573632 25.6186 -0.0079017 22.6469 0.000113706Z" fill="#054F77"/>
<path d="M24.3311 20.7993H37.3226V18.9779C37.3226 17.7636 36.017 17.855 36.017 17.855H35.1226V14.8911H37.3292V13.2852C37.3298 13.104 37.2927 12.9246 37.2203 12.7585C37.1479 12.5924 37.0416 12.4432 36.9084 12.3203C36.7751 12.1975 36.6178 12.1038 36.4463 12.0451C36.2749 11.9864 36.093 11.9641 35.9125 11.9795H31.6886V10.6738H28.7705V11.9795H23.13V13.938C23.13 13.938 23.0908 14.9107 24.3769 14.9107H25.3365V17.855H23.13V19.7287C23.1319 19.88 23.1653 20.0293 23.2281 20.1671C23.2909 20.3048 23.3817 20.4279 23.4947 20.5286C23.6077 20.6294 23.7405 20.7054 23.8845 20.752C24.0285 20.7986 24.1806 20.8147 24.3311 20.7993ZM28.2482 14.9238H32.1652V17.8681H28.2482V14.9238Z" fill="#054F77"/>
<path d="M34.3653 36.598V32.5635H37.3227V21.7852H23.0974V31.075C23.0858 31.2669 23.1137 31.4592 23.1794 31.6398C23.2451 31.8205 23.3472 31.9857 23.4794 32.1252C23.6117 32.2648 23.7711 32.3757 23.948 32.4511C24.1248 32.5265 24.3152 32.5647 24.5075 32.5635H26.0352V36.6046H23.1627C23.0496 37.727 22.5376 38.7717 21.7198 39.5488H26.1592C26.5356 39.57 26.9123 39.511 27.2642 39.3757C27.6161 39.2404 27.9353 39.032 28.2006 38.7642C28.466 38.4963 28.6714 38.1752 28.8034 37.8221C28.9354 37.4689 28.991 37.0918 28.9664 36.7155V32.57H31.4145V39.5488H34.2348C36.0431 39.5488 38.1518 36.6046 38.1518 36.6046L34.3653 36.598ZM30.1807 30.5723C29.3012 30.5725 28.456 30.2308 27.8239 29.6192H26.0547V24.7229H27.8369C28.4675 24.109 29.3137 23.7668 30.1937 23.7698C31.0738 23.7668 31.9199 24.109 32.5505 24.7229H34.3914V29.6192H32.5505C31.9131 30.2291 31.0629 30.5664 30.1807 30.5593V30.5723Z" fill="#054F77"/>
<path d="M30.1349 24.6187C29.7975 24.6187 29.4633 24.6852 29.1516 24.8146C28.8399 24.9439 28.5568 25.1335 28.3184 25.3724C28.0801 25.6114 27.8913 25.895 27.7628 26.207C27.6342 26.519 27.5685 26.8534 27.5693 27.1908C27.5693 27.8719 27.8394 28.5252 28.3204 29.0073C28.8013 29.4895 29.4539 29.7613 30.1349 29.763C30.8171 29.763 31.4714 29.492 31.9538 29.0097C32.4361 28.5273 32.7072 27.873 32.7072 27.1908C32.708 26.8528 32.6421 26.5179 32.5131 26.2055C32.3842 25.893 32.1947 25.6091 31.9557 25.3701C31.7167 25.1311 31.4328 24.9417 31.1203 24.8127C30.8079 24.6838 30.473 24.6178 30.1349 24.6187ZM30.1349 28.947C29.6692 28.947 29.2225 28.762 28.8932 28.4326C28.5638 28.1033 28.3789 27.6566 28.3789 27.1908C28.3789 26.7251 28.5638 26.2784 28.8932 25.9491C29.2225 25.6197 29.6692 25.4347 30.1349 25.4347C30.3661 25.4338 30.5952 25.4786 30.809 25.5665C31.0228 25.6544 31.2172 25.7836 31.3809 25.9467C31.5447 26.1099 31.6746 26.3038 31.7633 26.5173C31.852 26.7308 31.8977 26.9597 31.8977 27.1908C31.8977 27.422 31.852 27.6509 31.7633 27.8644C31.6746 28.0779 31.5447 28.2718 31.3809 28.4349C31.2172 28.5981 31.0228 28.7273 30.809 28.8152C30.5952 28.9031 30.3661 28.9478 30.1349 28.947Z" fill="#054F77"/>
<path d="M21.8047 37.7992C22.0038 37.425 22.1343 37.0182 22.19 36.598H18.0314V26.6814H22.1182V24.8992C22.1382 24.7389 22.1208 24.5762 22.0673 24.4238C22.0139 24.2714 21.9257 24.1335 21.8099 24.0209C21.6942 23.9083 21.5539 23.824 21.4001 23.7748C21.2462 23.7256 21.0831 23.7127 20.9234 23.7371H18.0314V20.7994H22.19V17.7376C22.1529 17.0477 21.881 16.3912 21.4196 15.877L17.4112 11.8686C17.2068 11.6644 16.9297 11.5498 16.6409 11.5498C16.352 11.5498 16.0749 11.6644 15.8705 11.8686L11.849 15.89C11.3875 16.4017 11.1157 17.0561 11.0787 17.7441V19.7026C11.0787 20.2967 11.0787 20.7928 11.0787 20.7994C11.0787 20.8059 11.4312 20.4599 11.8555 20.0356L15.8639 16.0271C16.0684 15.823 16.3455 15.7084 16.6343 15.7084C16.9232 15.7084 17.2002 15.823 17.4046 16.0271L19.2391 17.8616H15.975C15.6691 17.8712 15.3682 17.9421 15.0901 18.0699C14.8121 18.1977 14.5624 18.38 14.3559 18.6058L11.8229 21.1388H15.0871V23.7502H11.0003V25.5912C10.9839 25.7436 11.0024 25.8977 11.0546 26.0417C11.1068 26.1858 11.1913 26.3161 11.3015 26.4225C11.4117 26.529 11.5448 26.6088 11.6906 26.656C11.8364 26.7031 11.9911 26.7163 12.1428 26.6945H15.0871V36.6111H11.0003C11.0003 36.6111 11.9404 39.5554 13.6704 39.5554H19.3697C19.5299 39.5549 19.6897 39.5374 19.8462 39.5032C20.5549 39.2471 21.1648 38.7743 21.5893 38.1518L21.6285 38.093L21.746 37.9102C21.7688 37.875 21.7885 37.8379 21.8047 37.7992Z" fill="#054F77"/>
<path d="M19.9964 32.5702C21.0817 32.5702 21.9615 31.6904 21.9615 30.6052C21.9615 29.5199 21.0817 28.6401 19.9964 28.6401C18.9111 28.6401 18.0314 29.5199 18.0314 30.6052C18.0314 31.6904 18.9111 32.5702 19.9964 32.5702Z" fill="#054F77"/>
<path d="M13.1742 33.4251C13.6348 32.9103 13.9065 32.2541 13.9446 31.5645V27.6475L13.1677 28.4178L11.7771 29.8149C11.3157 30.3291 11.0439 30.9856 11.0068 31.6755V35.5925L11.7837 34.8221L13.1742 33.4251Z" fill="#054F77"/>
<path d="M60.8575 22.0723H63.9585V29.6713H60.8575V22.0723Z" fill="#054F77"/>
<path d="M65.9366 22.0723H71.1593C73.7706 22.0723 74.7042 23.0058 74.7042 24.0308C74.7042 25.0557 73.9338 25.6825 72.491 25.8848C74.4495 26.0415 74.5801 26.7596 74.6127 27.7781C74.6715 29.2796 74.7629 29.4297 75.2068 29.5342V29.6321H71.8578C71.6162 29.3775 71.5248 28.9466 71.5248 28.0849C71.5248 26.7792 71.2115 26.492 70.2192 26.492H69.0376V29.6321H65.9301L65.9366 22.0723ZM69.044 25.2712H70.0038C71.2572 25.2712 71.5901 24.7293 71.5901 24.2854C71.5901 23.7109 71.218 23.3257 69.9841 23.3257H69.044V25.2712Z" fill="#054F77"/>
<path d="M76.5386 22.0723H81.7613C84.3727 22.0723 85.3127 23.0058 85.3127 24.0308C85.3127 25.0557 84.5358 25.6825 83.0931 25.8848C85.0516 26.0415 85.1821 26.7596 85.2148 27.7781C85.2735 29.2796 85.365 29.4297 85.8089 29.5342V29.6321H82.4664C82.2248 29.3775 82.1334 28.9466 82.1334 28.0849C82.1334 26.7792 81.82 26.492 80.8277 26.492H79.6461V29.6321H76.5386V22.0723ZM79.6461 25.2712H80.6058C81.8592 25.2712 82.1921 24.7293 82.1921 24.2854C82.1921 23.7109 81.8266 23.3257 80.5862 23.3257H79.6461V25.2712Z" fill="#054F77"/>
<path d="M91.4821 29.8149C87.4019 29.8149 86.8469 28.2873 86.8469 25.8979C86.8469 23.5085 87.4019 21.9482 91.4821 21.9482C95.8822 21.9482 96.1238 23.7892 96.1238 25.8979C96.1238 28.0066 95.8822 29.8149 91.4821 29.8149ZM91.4821 28.6268C92.7356 28.6268 92.9183 27.9739 92.9183 25.8718C92.9183 23.7697 92.7356 23.1168 91.4821 23.1168C90.2287 23.1168 90.0785 23.7697 90.0785 25.8718C90.0785 27.9739 90.2482 28.6007 91.4429 28.6007L91.4821 28.6268Z" fill="#054F77"/>
<path d="M97.7493 22.0723H102.972C105.583 22.0723 106.523 23.0058 106.523 24.0308C106.523 25.0557 105.747 25.6825 104.304 25.8848C106.262 26.0415 106.393 26.7596 106.432 27.7781C106.484 29.2796 106.576 29.4297 107.02 29.5342V29.6321H103.677C103.436 29.3775 103.344 28.9466 103.344 28.0849C103.344 26.7792 103.031 26.492 102.038 26.492H100.857V29.6321H97.7559L97.7493 22.0723ZM100.85 25.2712H101.81C103.063 25.2712 103.396 24.7293 103.396 24.2854C103.396 23.7109 103.031 23.3257 101.79 23.3257H100.85V25.2712Z" fill="#054F77"/>
<path d="M49.4851 30.8925L48.7213 25.9505H48.6821V30.8925H45.9141V22.0726H50.4839L51.7243 30.9055L49.4851 30.8925ZM55.2953 30.8925V25.9505H55.2626L54.538 30.8925H52.4881L53.6894 22.0596H58.1809V30.8925H55.2953Z" fill="#054F77"/>
<path d="M60.6943 32.0737H68.3194V33.523H63.7953V35.0441H68.0452V36.4869H63.7953V38.2234H68.5218V39.6989H60.6877L60.6943 32.0737Z" fill="#054F77"/>
<path d="M69.8993 32.0737H74.4691C77.5375 32.0737 78.8431 32.9877 78.8431 35.6252C78.8431 38.3801 78.236 39.6727 74.1558 39.6727H69.8993V32.0737ZM73.0068 38.354H73.8359C75.2787 38.354 75.7944 38.0211 75.7944 35.7427C75.7944 33.8951 75.5398 33.3925 73.8946 33.3925H73.0264L73.0068 38.354Z" fill="#054F77"/>
<path d="M80.5862 32.0737H83.6871V39.6989H80.5862V32.0737Z" fill="#054F77"/>
<path d="M88.1069 32.0737H91.9847L95.2489 39.6727H92.037L91.5604 38.2234H88.4006L87.9371 39.6727H84.7252L88.1069 32.0737ZM89.9871 33.4577L88.8968 36.8394H91.1491L89.9871 33.4577Z" fill="#054F77"/>
<path d="M45.9141 30.8921H48.6821V39.6989H45.9141V30.8921ZM50.843 39.6662L49.4851 30.8921H51.6982L52.0833 33.6209H52.1225L52.4946 30.8921H54.538L53.2323 39.6662H50.843ZM55.2953 30.8921H58.1809V39.6989H55.2953V30.8921Z" fill="#054F77"/>
</g>
<defs>
<clipPath id="clip0_34_580">
<rect width="107" height="45.2351" fill="white"/>
</clipPath>
</defs>
</svg>
