<svg xmlns="http://www.w3.org/2000/svg" width="20" height="21" viewBox="0 0 20 21" fill="none">
  <path d="M7.39559 13.9862C8.05403 14.4448 8.79477 14.6681 9.62957 14.6681C10.4644 14.6681 11.2051 14.4448 11.8636 13.9862C12.522 13.5276 13.0041 12.928 13.2862 12.1873H5.9729C6.26685 12.928 6.73716 13.5276 7.39559 13.9862Z" fill="black" fill-opacity="0.87"/>
  <path d="M7.86591 9.71809C8.07755 9.50645 8.18337 9.25953 8.18337 8.96559C8.18337 8.67164 8.07755 8.42473 7.86591 8.21309C7.65427 8.00145 7.40736 7.89563 7.11342 7.89563C6.81947 7.89563 6.57256 8.00145 6.36092 8.21309C6.14928 8.42473 6.04346 8.67164 6.04346 8.96559C6.04346 9.25953 6.14928 9.50645 6.36092 9.71809C6.57256 9.92973 6.81947 10.0355 7.11342 10.0355C7.40736 10.0355 7.65427 9.92973 7.86591 9.71809Z" fill="black" fill-opacity="0.87"/>
  <path d="M16.6137 10.4824H15.532C15.4379 10.4824 15.3556 10.5529 15.3556 10.6587C15.3556 10.6587 15.3556 10.6587 15.3556 10.6705V10.7057C15.3556 10.7057 15.3556 10.7175 15.3556 10.7293C15.3556 12.293 14.7912 13.6452 13.6625 14.7739C12.5337 15.9027 11.1816 16.4671 9.61781 16.4671C8.05403 16.4671 6.70188 15.9027 5.57313 14.7739C4.44439 13.6452 3.88001 12.293 3.88001 10.7293C3.88001 9.16548 4.44439 7.81333 5.57313 6.68458C6.70188 5.55584 8.05403 4.99146 9.61781 4.99146C11.1816 4.99146 10.9229 5.09728 11.5226 5.30892C11.6049 5.33244 11.6989 5.30892 11.7342 5.22662L12.2045 4.18017C12.228 4.12139 12.2045 4.05084 12.134 4.02732C11.358 3.73338 10.5114 3.59229 9.61781 3.59229C7.65426 3.59229 5.96114 4.28599 4.57372 5.68517C3.17454 7.08435 2.48083 8.76571 2.48083 10.7293C2.48083 12.6928 3.17454 14.3859 4.57372 15.7734C5.9729 17.1725 7.65426 17.8662 9.61781 17.8662C11.5814 17.8662 13.2627 17.1725 14.6619 15.7734C16.0493 14.3859 16.7548 12.7163 16.7548 10.7645C16.7548 10.5647 16.7548 10.4706 16.6019 10.4706L16.6137 10.4824Z" fill="black" fill-opacity="0.87"/>
  <path d="M11.3815 8.21309C11.1699 8.42473 11.0641 8.67164 11.0641 8.96559C11.0641 9.25953 11.1699 9.50645 11.3815 9.71809C11.5932 9.92973 11.8401 10.0355 12.134 10.0355C12.428 10.0355 12.6749 9.92973 12.8865 9.71809C13.0982 9.50645 13.204 9.25953 13.204 8.96559C13.204 8.67164 13.0982 8.42473 12.8865 8.21309C12.6749 8.00145 12.428 7.89563 12.134 7.89563C11.8401 7.89563 11.5932 8.00145 11.3815 8.21309Z" fill="black" fill-opacity="0.87"/>
  <path d="M18.2598 5.48527H16.649V3.90973C16.649 3.81566 16.5785 3.74512 16.4844 3.74512H15.1793C15.0852 3.74512 15.0147 3.81566 15.0147 3.90973V5.48527H13.4039C13.3098 5.48527 13.2393 5.55582 13.2393 5.64988V6.95499C13.2393 7.04906 13.3098 7.1196 13.4039 7.1196H15.0147V8.69515C15.0147 8.78921 15.0852 8.85976 15.1793 8.85976H16.4844C16.5785 8.85976 16.649 8.78921 16.649 8.69515V7.1196H18.2598C18.3539 7.1196 18.4244 7.04906 18.4244 6.95499V5.64988C18.4244 5.55582 18.3539 5.48527 18.2598 5.48527Z" fill="black" fill-opacity="0.87"/>
</svg>