<svg width="16" height="16" viewBox="0 0 16 16" fill="none" xmlns="http://www.w3.org/2000/svg">
<g id="icon">
<path id="Vector" d="M6.28335 12.0212C5.74719 11.8707 5.24866 11.6825 4.79716 11.438C4.34566 11.1934 3.93179 10.93 3.57435 10.6384C3.21692 10.3469 2.90651 10.0553 2.65254 9.76367C2.39858 9.47207 2.20104 9.2087 2.06936 8.95473C1.93767 8.71017 1.87183 8.50323 1.87183 8.35273C1.87183 8.20223 1.93767 8.0047 2.06936 7.75073C2.20104 7.49676 2.39858 7.23339 2.65254 6.9418C2.90651 6.6502 3.21692 6.35861 3.57435 6.06702C3.93179 5.77542 4.34566 5.51205 4.79716 5.26749C5.24866 5.02292 5.74719 4.8348 6.28335 4.6843C6.8195 4.5338 7.39328 4.46796 7.99528 4.46796C8.59728 4.46796 9.18047 4.54321 9.72603 4.6843C10.2622 4.8348 10.7607 5.02292 11.2216 5.26749C11.6731 5.51205 12.087 5.77542 12.4444 6.06702C12.8019 6.35861 13.1029 6.6502 13.3568 6.9418C13.6108 7.23339 13.7989 7.49676 13.9306 7.75073C14.0623 8.0047 14.1281 8.19282 14.1281 8.35273C14.1281 8.51264 14.0623 8.71017 13.9306 8.95473C13.7989 9.19929 13.6108 9.47207 13.3568 9.76367C13.1029 10.0553 12.8019 10.3469 12.4444 10.6384C12.087 10.93 11.6825 11.1934 11.2216 11.438C10.7607 11.6825 10.2716 11.8707 9.72603 12.0212C9.18987 12.1717 8.60669 12.2375 7.99528 12.2375C7.38388 12.2375 6.8195 12.1623 6.28335 12.0212ZM9.32156 11.1088C9.74484 10.9959 10.1399 10.8454 10.5067 10.6667C10.8736 10.4785 11.2028 10.281 11.5038 10.0553C11.8048 9.83891 12.0588 9.61317 12.2751 9.39682C12.4915 9.18048 12.6514 8.97354 12.7642 8.79482C12.8771 8.6161 12.9336 8.47501 12.9336 8.37154C12.9336 8.26807 12.8771 8.1552 12.7642 7.98589C12.6514 7.81658 12.4821 7.61904 12.2751 7.39329C12.0588 7.17695 11.8048 6.9512 11.5038 6.72545C11.2028 6.4997 10.8736 6.29277 10.5067 6.10464C10.1399 5.91652 9.74484 5.75661 9.32156 5.64374C8.89828 5.53086 8.45619 5.46502 7.99528 5.46502C7.53438 5.46502 7.08288 5.52145 6.6596 5.64374C6.23632 5.75661 5.84126 5.91652 5.47441 6.10464C5.10757 6.29277 4.77835 6.4997 4.47735 6.72545C4.17635 6.9512 3.92238 7.16754 3.70604 7.39329C3.4897 7.60964 3.32979 7.80717 3.21692 7.98589C3.10404 8.1552 3.04761 8.28689 3.04761 8.37154C3.04761 8.4562 3.10404 8.6161 3.21692 8.79482C3.32979 8.97354 3.4991 9.17107 3.70604 9.39682C3.92238 9.61317 4.17635 9.83891 4.47735 10.0553C4.77835 10.2716 5.10757 10.4785 5.47441 10.6667C5.84126 10.8548 6.23632 11.0053 6.6596 11.1088C7.08288 11.2216 7.52497 11.2781 7.99528 11.2781C8.46559 11.2781 8.89828 11.2216 9.32156 11.1088ZM7.09228 10.5068C6.8101 10.3845 6.56554 10.2152 6.34919 9.99882C6.13285 9.78248 5.97294 9.53792 5.85066 9.25573C5.72838 8.97354 5.67194 8.68195 5.66254 8.36214C5.66254 8.04232 5.71897 7.74133 5.84126 7.45914C5.96354 7.17695 6.12344 6.93239 6.33979 6.71605C6.55613 6.4997 6.80069 6.3398 7.08288 6.21752C7.36507 6.09523 7.66606 6.0388 7.99528 6.0388C8.3245 6.0388 8.61609 6.09523 8.89828 6.21752C9.18047 6.3398 9.42503 6.4997 9.64137 6.71605C9.85772 6.93239 10.0176 7.17695 10.1399 7.45914C10.2622 7.74133 10.3186 8.04232 10.3186 8.36214C10.3186 8.68195 10.2622 8.97354 10.1399 9.25573C10.0176 9.53792 9.85772 9.78248 9.64137 9.99882C9.42503 10.2152 9.18047 10.3845 8.89828 10.5068C8.61609 10.629 8.31509 10.6949 7.99528 10.6949C7.67547 10.6949 7.36507 10.629 7.08288 10.5068H7.09228ZM8.52203 8.87948C8.66313 8.73839 8.73838 8.55967 8.73838 8.36214C8.73838 8.16461 8.66313 7.98589 8.52203 7.84479C8.38094 7.7037 8.20222 7.62845 7.99528 7.62845C7.78835 7.62845 7.61903 7.7037 7.47794 7.84479C7.33685 7.98589 7.2616 8.16461 7.2616 8.36214C7.2616 8.55967 7.33685 8.73839 7.47794 8.87948C7.61903 9.02057 7.79775 9.09582 7.99528 9.09582C8.19281 9.09582 8.37153 9.02057 8.52203 8.87948Z" fill="black" fill-opacity="0.5"/>
</g>
</svg>
