<svg width="16" height="16" viewBox="0 0 16 16" fill="none" xmlns="http://www.w3.org/2000/svg">
<g id="icon">
<path id="Vector" d="M6.30215 12.0117C5.76599 11.8612 5.26746 11.6731 4.81596 11.4286C4.36446 11.1934 3.95059 10.9206 3.59315 10.6384C3.23572 10.3468 2.92531 10.0553 2.67134 9.77307C2.41737 9.48147 2.21984 9.2181 2.08816 8.96413C1.95647 8.71957 1.89062 8.51263 1.89062 8.36213C1.89062 8.21163 1.93766 8.06113 2.04112 7.85419C2.14459 7.64726 2.29509 7.42151 2.48322 7.17695C2.68075 6.93238 2.9159 6.67842 3.19809 6.42445C3.48028 6.17048 3.80009 5.92592 4.15753 5.70017L4.91003 6.45267C4.61843 6.63138 4.36446 6.81951 4.13871 7.01704C3.91296 7.21457 3.71543 7.39329 3.55553 7.57201C3.39562 7.75073 3.27334 7.91063 3.18869 8.05172C3.10403 8.19282 3.0664 8.29629 3.0664 8.37154C3.0664 8.47501 3.12284 8.6161 3.23572 8.79482C3.34859 8.97354 3.5179 9.17107 3.72484 9.39682C3.94118 9.61316 4.19515 9.83891 4.49615 10.0553C4.79715 10.2716 5.12637 10.4785 5.49321 10.6667C5.86005 10.8548 6.25512 10.9959 6.6784 11.1087C7.10168 11.2216 7.54377 11.2781 8.01408 11.2781C8.48439 11.2781 8.51261 11.2592 8.74777 11.2216C8.98292 11.184 9.21808 11.137 9.44383 11.0711L10.2434 11.8801C9.90473 11.9929 9.5473 12.0776 9.18045 12.1434C8.8042 12.2093 8.41855 12.2375 8.01408 12.2375C7.41208 12.2375 6.8383 12.1622 6.30215 12.0212V12.0117ZM3.96 4.75014C3.88475 4.68429 3.85653 4.59964 3.85653 4.49617C3.85653 4.3927 3.89415 4.30804 3.96 4.2422C4.03525 4.16695 4.1199 4.13873 4.21396 4.13873C4.31743 4.13873 4.40209 4.17636 4.46793 4.2422L12.0588 11.8236C12.134 11.8989 12.1622 11.9741 12.1716 12.0776C12.1716 12.1717 12.134 12.2563 12.0588 12.341C11.9835 12.4162 11.8989 12.4538 11.8048 12.4538C11.7107 12.4538 11.6167 12.4162 11.5414 12.341L3.96 4.75014ZM7.11108 10.5068C6.8289 10.3845 6.58433 10.2152 6.36799 9.99882C6.15165 9.78247 5.99174 9.53791 5.86946 9.25572C5.74718 8.97354 5.69074 8.68194 5.69074 8.36213C5.69074 8.20222 5.70956 8.05172 5.73777 7.91063C5.76599 7.76013 5.81302 7.62844 5.87887 7.49676L8.87946 10.4973C8.74777 10.5538 8.60667 10.6008 8.46558 10.6384C8.32449 10.6761 8.17399 10.6855 8.02349 10.6855C7.69427 10.6855 7.39327 10.6196 7.11108 10.4973V10.5068ZM9.75423 4.72192C10.2904 4.87242 10.7889 5.06054 11.2498 5.30511C11.7013 5.54026 12.1058 5.81304 12.4726 6.09523C12.8301 6.38682 13.1311 6.67842 13.385 6.9606C13.639 7.24279 13.8271 7.51557 13.9588 7.76954C14.0905 8.0141 14.1564 8.21163 14.1564 8.36213C14.1564 8.51263 14.1093 8.66313 14.0058 8.86066C13.9024 9.0676 13.7613 9.28394 13.5732 9.5285C13.385 9.77307 13.1593 10.0176 12.8865 10.2716C12.6137 10.5256 12.3033 10.7701 11.9647 10.9959L11.2216 10.2434C11.4944 10.0741 11.7295 9.89535 11.9459 9.70722C12.1622 9.5191 12.3409 9.34038 12.5009 9.17107C12.6514 8.99235 12.7736 8.84185 12.8489 8.70075C12.9241 8.55966 12.9712 8.44679 12.9712 8.36213C12.9712 8.27747 12.9147 8.14579 12.8019 7.97648C12.689 7.80716 12.5197 7.60963 12.3127 7.38388C12.0964 7.16754 11.8424 6.94179 11.5508 6.71604C11.2498 6.49029 10.9206 6.28335 10.5538 6.09523C10.1869 5.9071 9.79186 5.7472 9.36858 5.63432C8.9453 5.52145 8.50321 5.45561 8.0423 5.45561C7.5814 5.45561 7.58139 5.47442 7.35565 5.50264C7.1393 5.53086 6.92296 5.57789 6.71602 5.63432L5.90709 4.83479C6.2363 4.72192 6.57493 4.63726 6.93236 4.58083C7.2898 4.52439 7.65664 4.48676 8.0423 4.48676C8.65371 4.48676 9.22749 4.56201 9.77305 4.70311L9.75423 4.72192ZM7.25218 6.1987C7.37446 6.15167 7.49674 6.11404 7.61902 6.08582C7.75071 6.0576 7.88239 6.0482 8.02349 6.0482C8.3433 6.0482 8.6443 6.10463 8.92649 6.22692C9.20867 6.3492 9.45324 6.5091 9.66958 6.72545C9.88592 6.93238 10.0458 7.18635 10.1681 7.46854C10.2904 7.75073 10.3468 8.05172 10.3468 8.37154C10.3468 8.69135 10.328 8.64432 10.3092 8.7666C10.281 8.89829 10.2434 9.02057 10.1869 9.14285L7.25218 6.1987Z" fill="black" fill-opacity="0.5"/>
</g>
</svg>
