<svg width="15" height="13" viewBox="0 0 15 13" fill="none" xmlns="http://www.w3.org/2000/svg">
<path d="M15 6.35938C15 6.55729 14.9219 6.73177 14.7656 6.88281L9.57031 12.0625C9.41927 12.2083 9.25 12.2812 9.0625 12.2812C8.86979 12.2812 8.70833 12.2161 8.57812 12.0859C8.44792 11.9609 8.38281 11.8021 8.38281 11.6094C8.38281 11.5156 8.39844 11.4271 8.42969 11.3438C8.46094 11.2552 8.50781 11.1797 8.57031 11.1172L10.3203 9.33594L13.4219 6.51562L13.5781 6.89844L11.0625 7.05469H1.17969C0.976562 7.05469 0.809896 6.98958 0.679688 6.85938C0.554688 6.72917 0.492188 6.5625 0.492188 6.35938C0.492188 6.15625 0.554688 5.98958 0.679688 5.85938C0.809896 5.72917 0.976562 5.66406 1.17969 5.66406H11.0625L13.5781 5.82031L13.4219 6.21094L10.3203 3.38281L8.57031 1.60156C8.50781 1.53906 8.46094 1.46615 8.42969 1.38281C8.39844 1.29427 8.38281 1.20312 8.38281 1.10938C8.38281 0.916667 8.44792 0.757812 8.57812 0.632812C8.70833 0.502604 8.86979 0.4375 9.0625 0.4375C9.15625 0.4375 9.24479 0.455729 9.32812 0.492188C9.41667 0.528646 9.5026 0.588542 9.58594 0.671875L14.7656 5.83594C14.9219 5.98698 15 6.16146 15 6.35938Z" fill="#000000"/>
</svg>
