<svg width="40" height="26" viewBox="0 0 40 26" fill="none" xmlns="http://www.w3.org/2000/svg">
<path d="M35.2772 0L4.72276 0C2.11445 0 0 2.12677 0 4.75028L0 21.0988C0 23.7223 2.11445 25.8491 4.72276 25.8491H35.2772C37.8856 25.8491 40 23.7223 40 21.0988V4.75028C40 2.12677 37.8856 0 35.2772 0Z" fill="#E6FDFF"/>
<path d="M38.6981 24.3729L25.4788 8.95667C25.4016 8.86788 25.3022 8.82349 25.1919 8.82349H14.9519C14.8416 8.82349 14.7312 8.86788 14.665 8.95667L1.30225 24.3729C1.4788 24.5616 1.67742 24.7391 1.87604 24.8945L15.1174 9.6004H25.0043L38.1243 24.8945C38.334 24.7391 38.5216 24.5616 38.6981 24.3729Z" fill="#92D1D5"/>
<path d="M1.88672 0.954468L18.6371 16.859H21.4509L38.124 0.954468L1.88672 0.954468Z" fill="#E6FDFF"/>
<path d="M38.6978 1.465C38.5213 1.27632 38.3226 1.09874 38.124 0.943359L21.9144 16.0821C20.844 17.081 19.1668 17.081 18.0964 16.0821L1.88678 0.954458C1.67713 1.10984 1.48954 1.28742 1.31299 1.4761C1.31299 1.4761 1.31299 1.4761 1.32402 1.4872L17.5668 16.6481C18.2509 17.2808 19.1226 17.6026 20.0054 17.6026C20.8882 17.6026 21.7599 17.2808 22.444 16.6481L38.6868 1.4872C38.6868 1.4872 38.6868 1.4872 38.6978 1.4761V1.465Z" fill="#92D1D5"/>
</svg>
