<svg width="60" height="60" viewBox="0 0 60 60" fill="none" xmlns="http://www.w3.org/2000/svg">
<g clip-path="url(#clip0_213_8026)">
<path d="M24.0661 34.1134C24.1534 34.0139 24.2656 33.9641 24.3902 33.9641H35.9568C36.0815 33.9641 36.2061 34.0139 36.2809 34.1134L38.325 36.4766L50.5647 25.1458C49.6673 24.4742 48.558 24.0762 47.3614 24.0762L12.861 24.0762C11.6644 24.0762 10.5551 24.4742 9.65771 25.1458L21.9597 36.5388L24.0786 34.1134H24.0661Z" fill="#E6EBFF"/>
<path d="M9.65771 25.2329L30.1237 7.40967L50.5896 25.2329L9.65771 25.2329Z" fill="#E6EBFF"/>
<path d="M9.65771 25.1459L28.5781 42.9691H31.7564L50.5896 25.1459L9.65771 25.1459Z" fill="#E6EBFF"/>
<path d="M48.5082 16.514L11.7144 16.514L11.7144 37.8198H48.5082V16.514Z" fill="white"/>
<path d="M12.2144 17.014L48.0082 17.014V37.3198H12.2144L12.2144 17.014Z" stroke="black" stroke-opacity="0.1"/>
<path d="M51.2377 51.4018L36.3058 34.1258C36.2185 34.0263 36.1063 33.9766 35.9817 33.9766H24.4151C24.2904 33.9766 24.1658 34.0263 24.091 34.1258L8.99707 51.4018C9.19649 51.6132 9.42085 51.8122 9.6452 51.9864L24.5896 34.8472H35.7574L50.5771 51.9864C50.8139 51.8122 51.0258 51.6132 51.2252 51.4018H51.2377Z" fill="#92A5D5"/>
<path d="M35.7697 34.8348H24.6019L9.65756 51.974C9.54538 51.8869 9.43321 51.7999 9.3335 51.7004C10.2808 52.5337 11.5147 53.0436 12.8733 53.0436H47.3737C48.7323 53.0436 49.9662 52.5337 50.9135 51.7004C50.8013 51.7999 50.7016 51.8869 50.577 51.974L35.7572 34.8348H35.7697Z" fill="#E6EBFF"/>
<path d="M8.99712 51.4019L21.3864 37.198L9.02205 25.7429C9.02205 25.7429 9.02205 25.7429 9.00959 25.7304C9.05944 25.6807 9.1093 25.6309 9.15916 25.5812C8.14957 26.5513 7.52637 27.907 7.52637 29.412L7.52637 47.7327C7.52637 49.2377 8.14957 50.5934 9.15916 51.5635C9.1093 51.5138 9.05944 51.464 9.00959 51.4143L8.99712 51.4019Z" fill="#E6EBFF"/>
<path d="M9.15918 25.5687C9.20904 25.5189 9.25889 25.4692 9.30875 25.4319C9.25889 25.4816 9.20904 25.5314 9.15918 25.5687Z" fill="#E6EBFF"/>
<path d="M50.9263 25.4319C50.9761 25.4816 51.026 25.5314 51.0758 25.5687C51.026 25.5189 50.9761 25.4692 50.9263 25.4319Z" fill="#E6EBFF"/>
<path d="M9.3335 25.4071C9.43321 25.32 9.53292 25.2454 9.63263 25.1583C9.53292 25.233 9.43321 25.32 9.3335 25.4071Z" fill="#E6EBFF"/>
<path d="M50.5898 25.1459C50.702 25.2329 50.8017 25.32 50.9139 25.4071C50.8142 25.32 50.702 25.2329 50.5898 25.1459Z" fill="#E6EBFF"/>
<path d="M51.0757 51.5511C51.0258 51.6009 50.976 51.6506 50.9261 51.7004C50.814 51.7999 50.7142 51.8869 50.5896 51.974L38.2751 37.7328L37.7018 37.0736L32.2799 42.0984C31.0709 43.2178 29.1764 43.2178 27.9674 42.0984L22.6078 37.1358L22.0345 37.795L9.65771 51.974C10.5551 52.6456 11.6644 53.0436 12.861 53.0436H47.3739C48.8945 53.0436 50.2655 52.4093 51.2377 51.3894C51.1879 51.4392 51.138 51.4889 51.0882 51.5387L51.0757 51.5511Z" fill="#E6EBFF"/>
<path d="M9.64535 51.974C9.53318 51.8869 9.421 51.7998 9.32129 51.7128C9.421 51.7998 9.53318 51.8993 9.64535 51.974Z" fill="#E6EBFF"/>
<path d="M52.7083 29.3995C52.7083 27.8946 52.0851 26.5389 51.0755 25.5687C51.1254 25.6185 51.1753 25.6682 51.2251 25.718C51.2251 25.718 51.2251 25.718 51.2126 25.7304L38.9106 37.1234L51.2376 51.377C52.1475 50.4193 52.7083 49.1257 52.7083 47.7078V29.3995Z" fill="#E6EBFF"/>
<path d="M24.6019 34.8348L22.5952 37.1234L27.9547 42.086C29.1638 43.2054 31.0583 43.2054 32.2673 42.086L37.6892 37.0612L35.7572 34.8224H24.5895L24.6019 34.8348Z" fill="#E6EBFF"/>
<path d="M9.65774 25.1459C9.65774 25.1459 9.64528 25.1459 9.63281 25.1583C9.63281 25.1583 9.64528 25.1583 9.65774 25.1459Z" fill="#92A5D5"/>
<path d="M9.30859 25.4319C9.30859 25.4319 9.32106 25.4319 9.33352 25.4194C9.33352 25.4194 9.32106 25.4194 9.30859 25.4319Z" fill="#92A5D5"/>
<path d="M9.02223 25.7429L21.3866 37.198L21.9599 36.5388L9.6579 25.1459C9.6579 25.1459 9.64543 25.1459 9.63297 25.1583C9.53326 25.2329 9.43354 25.32 9.33383 25.4071C9.33383 25.4071 9.32137 25.4071 9.3089 25.4195C9.25905 25.4693 9.20919 25.519 9.15933 25.5563C9.10948 25.6061 9.05962 25.6558 9.00977 25.7056C9.00977 25.7056 9.00977 25.7056 9.02223 25.718V25.7429Z" fill="#92A5D5"/>
<path d="M50.9014 25.407C50.9014 25.407 50.9138 25.407 50.9263 25.4194C50.9263 25.4194 50.9138 25.4194 50.9014 25.407Z" fill="#92A5D5"/>
<path d="M38.9107 37.1482L51.2128 25.7552C51.2128 25.7552 51.2128 25.7552 51.2252 25.7428C51.1754 25.6931 51.1255 25.6433 51.0756 25.5936C51.0258 25.5438 50.9759 25.494 50.9261 25.4567C50.9261 25.4567 50.9136 25.4567 50.9012 25.4443C50.8014 25.3572 50.6893 25.2702 50.5771 25.1831L38.3374 36.5139L38.9107 37.1731V37.1482Z" fill="#92A5D5"/>
<path d="M21.3863 37.198L8.99707 51.4018C9.04693 51.4516 9.09678 51.5013 9.14664 51.5511C9.19649 51.6008 9.24635 51.6506 9.29621 51.7003C9.39592 51.7874 9.5081 51.8869 9.62027 51.9615L21.9971 37.7701L21.3614 37.1731L21.3863 37.198Z" fill="#92A5D5"/>
<path d="M38.9106 37.1482L38.2749 37.7452L50.5894 51.9864C50.7015 51.8993 50.8137 51.8123 50.9259 51.7128C50.9758 51.663 51.0256 51.6132 51.0755 51.5635C51.1253 51.5137 51.1752 51.464 51.225 51.4142L38.8981 37.1606L38.9106 37.1482Z" fill="#92A5D5"/>
<path d="M36.3058 34.1258C36.2186 34.0263 36.1064 33.9766 35.9817 33.9766H24.4151C24.2905 33.9766 24.1658 34.0263 24.0911 34.1258L21.9722 36.5512L22.6078 37.1482L24.6145 34.8596H35.7823L37.7142 37.0984L38.3499 36.5014L36.3058 34.1383V34.1258Z" fill="#92A5D5"/>
<path d="M37.7017 37.0736L38.275 37.7328L38.9107 37.1482L38.3498 36.4766L37.7017 37.0736Z" fill="#92A5D5"/>
<path d="M21.3862 37.198L22.0219 37.795L22.5952 37.1358L21.9596 36.5388L21.3862 37.198Z" fill="#92A5D5"/>
<path d="M43.8713 21.2653H16.7246V22.1235H43.8713V21.2653Z" fill="black" fill-opacity="0.3"/>
<path d="M43.8713 24.0389H16.7246V24.8971H43.8713V24.0389Z" fill="black" fill-opacity="0.3"/>
<path d="M34.947 26.9493H16.7246V27.8075H34.947V26.9493Z" fill="black" fill-opacity="0.3"/>
</g>
<defs>
<clipPath id="clip0_213_8026">
<rect width="45.1821" height="45.6339" fill="white" transform="translate(7.52637 7.40967)"/>
</clipPath>
</defs>
</svg>
