<svg width="46" height="47" viewBox="0 0 46 47" fill="none" xmlns="http://www.w3.org/2000/svg">
<g id="Smartphone" clip-path="url(#clip0_422_9622)">
<path id="Vector" d="M17.0659 27.1134C17.1531 27.0139 17.2653 26.9641 17.39 26.9641H28.9566C29.0812 26.9641 29.2059 27.0139 29.2806 27.1134L31.3248 29.4766L43.5644 18.1458C42.667 17.4742 41.5577 17.0762 40.3612 17.0762L5.86073 17.0762C4.66418 17.0762 3.55488 17.4742 2.65747 18.1458L14.9595 29.5388L17.0784 27.1134H17.0659Z" fill="#EFEFEF"/>
<path id="Vector_2" d="M2.65747 18.2329L23.1234 0.409668L43.5894 18.2329L2.65747 18.2329Z" fill="#EFEFEF"/>
<path id="Vector_3" d="M2.65747 18.1459L21.5779 35.9691H24.7562L43.5894 18.1459L2.65747 18.1459Z" fill="#EFEFEF"/>
<g id="Vector_4">
<path d="M41.5079 9.51404L4.71411 9.51404L4.71411 30.8198L41.5079 30.8198V9.51404Z" fill="white"/>
<path d="M5.21411 30.3198L5.21411 10.014L41.0079 10.014V30.3198L5.21411 30.3198Z" stroke="black" stroke-opacity="0.1"/>
</g>
<path id="Vector_5" d="M44.2374 44.4018L29.3055 27.1258C29.2183 27.0263 29.1061 26.9766 28.9815 26.9766H17.4148C17.2902 26.9766 17.1656 27.0263 17.0908 27.1258L1.99683 44.4018C2.19625 44.6132 2.4206 44.8122 2.64496 44.9864L17.5893 27.8472H28.7571L43.5768 44.9864C43.8137 44.8122 44.0256 44.6132 44.225 44.4018H44.2374Z" fill="#D0D0D0"/>
<path id="Vector_6" d="M28.7697 27.8348H17.6019L2.65756 44.974C2.54538 44.8869 2.43321 44.7999 2.3335 44.7004C3.28076 45.5337 4.5147 46.0436 5.87328 46.0436H40.3737C41.7323 46.0436 42.9663 45.5337 43.9135 44.7004C43.8013 44.7999 43.7016 44.8869 43.577 44.974L28.7572 27.8348H28.7697Z" fill="#EFEFEF"/>
<path id="Vector_7" d="M1.99688 44.4019L14.3861 30.198L2.02181 18.7429C2.02181 18.7429 2.02181 18.7429 2.00934 18.7304C2.0592 18.6807 2.10906 18.6309 2.15891 18.5812C1.14932 19.5513 0.526123 20.907 0.526123 22.412L0.526123 40.7327C0.526123 42.2377 1.14932 43.5934 2.15891 44.5635C2.10906 44.5138 2.0592 44.464 2.00934 44.4143L1.99688 44.4019Z" fill="#EFEFEF"/>
<path id="Vector_8" d="M2.15894 18.5687C2.20879 18.5189 2.25865 18.4692 2.3085 18.4319C2.25865 18.4816 2.20879 18.5314 2.15894 18.5687Z" fill="#EFEFEF"/>
<path id="Vector_9" d="M43.9258 18.4319C43.9756 18.4816 44.0255 18.5314 44.0753 18.5687C44.0255 18.5189 43.9756 18.4692 43.9258 18.4319Z" fill="#EFEFEF"/>
<path id="Vector_10" d="M2.3335 18.4071C2.43321 18.32 2.53292 18.2454 2.63263 18.1583C2.53292 18.233 2.43321 18.32 2.3335 18.4071Z" fill="#EFEFEF"/>
<path id="Vector_11" d="M43.5894 18.1459C43.7015 18.2329 43.8012 18.32 43.9134 18.4071C43.8137 18.32 43.7015 18.2329 43.5894 18.1459Z" fill="#EFEFEF"/>
<path id="Vector_12" d="M44.0755 44.5511C44.0256 44.6009 43.9757 44.6506 43.9259 44.7004C43.8137 44.7999 43.714 44.8869 43.5894 44.974L31.2749 30.7328L30.7015 30.0736L25.2797 35.0984C24.0707 36.2178 22.1761 36.2178 20.9671 35.0984L15.6076 30.1358L15.0343 30.795L2.65747 44.974C3.55488 45.6456 4.66418 46.0436 5.86073 46.0436H40.3736C41.8943 46.0436 43.2653 45.4093 44.2375 44.3894C44.1876 44.4392 44.1378 44.4889 44.0879 44.5387L44.0755 44.5511Z" fill="#EFEFEF"/>
<path id="Vector_13" d="M2.64511 44.974C2.53293 44.8869 2.42076 44.7998 2.32104 44.7128C2.42076 44.7998 2.53293 44.8993 2.64511 44.974Z" fill="#EFEFEF"/>
<path id="Vector_14" d="M45.7083 22.3995C45.7083 20.8946 45.0851 19.5389 44.0755 18.5687C44.1254 18.6185 44.1753 18.6682 44.2251 18.718C44.2251 18.718 44.2251 18.718 44.2126 18.7304L31.9106 30.1234L44.2376 44.377C45.1475 43.4193 45.7083 42.1257 45.7083 40.7078V22.3995Z" fill="#EFEFEF"/>
<path id="Vector_15" d="M17.6019 27.8348L15.5952 30.1234L20.9547 35.086C22.1638 36.2054 24.0583 36.2054 25.2673 35.086L30.6892 30.0612L28.7572 27.8224H17.5895L17.6019 27.8348Z" fill="#EFEFEF"/>
<path id="Vector_16" d="M2.6575 18.1459C2.6575 18.1459 2.64503 18.1459 2.63257 18.1583C2.63257 18.1583 2.64503 18.1583 2.6575 18.1459Z" fill="#D0D0D0"/>
<path id="Vector_17" d="M2.30859 18.4319C2.30859 18.4319 2.32106 18.4319 2.33352 18.4194C2.33352 18.4194 2.32106 18.4194 2.30859 18.4319Z" fill="#D0D0D0"/>
<path id="Vector_18" d="M2.02174 18.7429L14.3861 30.198L14.9594 29.5388L2.65741 18.1459C2.65741 18.1459 2.64494 18.1459 2.63248 18.1583C2.53277 18.2329 2.43305 18.32 2.33334 18.4071C2.33334 18.4071 2.32088 18.4071 2.30841 18.4195C2.25856 18.4693 2.2087 18.519 2.15885 18.5563C2.10899 18.6061 2.05913 18.6558 2.00928 18.7056C2.00928 18.7056 2.00928 18.7056 2.02174 18.718V18.7429Z" fill="#D0D0D0"/>
<path id="Vector_19" d="M43.9009 18.407C43.9009 18.407 43.9133 18.407 43.9258 18.4194C43.9258 18.4194 43.9133 18.4194 43.9009 18.407Z" fill="#D0D0D0"/>
<path id="Vector_20" d="M31.9105 30.1482L44.2125 18.7552C44.2125 18.7552 44.2125 18.7552 44.225 18.7428C44.1751 18.6931 44.1253 18.6433 44.0754 18.5936C44.0255 18.5438 43.9757 18.494 43.9258 18.4567C43.9258 18.4567 43.9134 18.4567 43.9009 18.4443C43.8012 18.3572 43.689 18.2702 43.5768 18.1831L31.3372 29.5139L31.9105 30.1731V30.1482Z" fill="#D0D0D0"/>
<path id="Vector_21" d="M14.3861 30.198L1.99683 44.4018C2.04668 44.4516 2.09654 44.5013 2.14639 44.5511C2.19625 44.6008 2.24611 44.6506 2.29596 44.7003C2.39568 44.7874 2.50785 44.8869 2.62003 44.9615L14.9968 30.7701L14.3611 30.1731L14.3861 30.198Z" fill="#D0D0D0"/>
<path id="Vector_22" d="M31.9106 30.1482L31.2749 30.7452L43.5894 44.9864C43.7015 44.8993 43.8137 44.8123 43.9259 44.7128C43.9758 44.663 44.0256 44.6132 44.0755 44.5635C44.1253 44.5137 44.1752 44.464 44.225 44.4142L31.8981 30.1606L31.9106 30.1482Z" fill="#D0D0D0"/>
<path id="Vector_23" d="M29.3056 27.1258C29.2183 27.0263 29.1061 26.9766 28.9815 26.9766H17.4149C17.2902 26.9766 17.1656 27.0263 17.0908 27.1258L14.9719 29.5512L15.6076 30.1482L17.6143 27.8596H28.7821L30.714 30.0984L31.3497 29.5014L29.3056 27.1383V27.1258Z" fill="#D0D0D0"/>
<path id="Vector_24" d="M30.7017 30.0736L31.275 30.7328L31.9107 30.1482L31.3498 29.4766L30.7017 30.0736Z" fill="#D0D0D0"/>
<path id="Vector_25" d="M14.3862 30.198L15.0219 30.795L15.5952 30.1358L14.9596 29.5388L14.3862 30.198Z" fill="#D0D0D0"/>
<path id="Vector_26" d="M36.8713 14.2653L9.72461 14.2653V15.1235L36.8713 15.1235V14.2653Z" fill="black" fill-opacity="0.3"/>
<path id="Vector_27" d="M36.8713 17.0389H9.72461V17.8971H36.8713V17.0389Z" fill="black" fill-opacity="0.3"/>
<path id="Vector_28" d="M27.947 19.9493H9.72461V20.8075H27.947V19.9493Z" fill="black" fill-opacity="0.3"/>
</g>
<defs>
<clipPath id="clip0_422_9622">
<rect width="45.1821" height="45.6339" fill="white" transform="translate(0.526123 0.409668)"/>
</clipPath>
</defs>
</svg>
