<svg width="75" height="32" viewBox="0 0 75 32" fill="none" xmlns="http://www.w3.org/2000/svg">
<g clip-path="url(#clip0_130_42)">
<mask id="mask0_130_42" style="mask-type:luminance" maskUnits="userSpaceOnUse" x="0" y="0" width="75" height="32">
<path d="M74.4348 0H0V31.4679H74.4348V0Z" fill="white"/>
</mask>
<g mask="url(#mask0_130_42)">
<path d="M15.7362 0.572218C17.7283 0.570428 19.7013 0.96118 21.5424 1.72215C23.3834 2.48313 25.0565 3.59941 26.4659 5.00721C27.8755 6.41502 28.9937 8.08674 29.7569 9.92688C30.5201 11.767 30.9132 13.7395 30.9138 15.7317C30.9138 19.7526 29.3168 23.609 26.474 26.4526C23.6311 29.2963 19.7753 30.8945 15.7543 30.8956C13.7632 30.8956 11.7916 30.5034 9.95205 29.7413C8.11254 28.9791 6.44114 27.8621 5.0334 26.454C3.62566 25.0458 2.50911 23.3741 1.74754 21.5343C0.985968 19.6946 0.594303 17.7228 0.5949 15.7317C0.5949 11.7111 2.19206 7.85523 5.03501 5.01231C7.87796 2.16936 11.7338 0.572218 15.7543 0.572218H15.7362ZM15.7543 -1.2453e-05C13.6869 -0.00659304 11.6387 0.397486 9.72867 1.18878C7.81862 1.98008 6.08481 3.14284 4.62774 4.60958C3.16235 6.06672 2.00043 7.79999 1.20921 9.70907C0.417983 11.6181 0.0131482 13.6651 0.0181233 15.7317C0.0125473 17.7989 0.417106 19.8468 1.20835 21.7567C1.99959 23.6666 3.16181 25.4006 4.62774 26.8583C6.08481 28.325 7.81862 29.4878 9.72867 30.2791C11.6387 31.0704 13.6869 31.4744 15.7543 31.4679C17.8216 31.4735 19.8695 31.0689 21.7794 30.2777C23.6893 29.4864 25.4233 28.3242 26.881 26.8583C28.3463 25.4003 29.5078 23.6663 30.2983 21.7564C31.0887 19.8465 31.4924 17.7987 31.486 15.7317C31.4919 13.6654 31.0878 11.6185 30.2974 9.70942C29.5069 7.80034 28.3457 6.06695 26.881 4.60958C25.4233 3.14366 23.6893 1.98144 21.7794 1.1902C19.8695 0.398957 17.8216 -0.00558839 15.7543 -1.2453e-05Z" fill="black" fill-opacity="0.87"/>
<path d="M16.926 14.4692H25.9635V13.2021C25.9635 12.3574 25.0553 12.4209 25.0553 12.4209H24.4331V10.3591H25.9681V9.24188C25.9685 9.11583 25.9427 8.99103 25.8924 8.87548C25.842 8.75993 25.7681 8.65614 25.6754 8.57072C25.5827 8.48529 25.4732 8.42011 25.3539 8.37927C25.2347 8.33844 25.1082 8.32292 24.9826 8.33364H22.0442V7.42532H20.0142V8.33364H16.0904V9.69607C16.0904 9.69607 16.0632 10.3727 16.9578 10.3727H17.6254V12.4209H16.0904V13.7243C16.0917 13.8296 16.115 13.9335 16.1587 14.0293C16.2024 14.1252 16.2655 14.2108 16.3441 14.2808C16.4227 14.3509 16.5151 14.4038 16.6153 14.4362C16.7155 14.4687 16.8213 14.4799 16.926 14.4692ZM19.6509 10.3818H22.3758V12.43H19.6509V10.3818Z" fill="black" fill-opacity="0.87"/>
<path d="M23.9062 25.4595V22.6529H25.9636V15.1549H16.0677V21.6174C16.0596 21.7509 16.079 21.8846 16.1247 22.0103C16.1705 22.136 16.2415 22.2509 16.3334 22.348C16.4255 22.4451 16.5364 22.5222 16.6594 22.5747C16.7824 22.6271 16.9149 22.6538 17.0486 22.6529H18.1114V25.4641H16.1131C16.0345 26.2449 15.6783 26.9716 15.1094 27.5123H18.1977C18.4595 27.5269 18.7215 27.4859 18.9663 27.3918C19.2111 27.2977 19.4332 27.1527 19.6178 26.9664C19.8024 26.7801 19.9453 26.5566 20.0371 26.311C20.1289 26.0653 20.1676 25.803 20.1505 25.5413V22.6574H21.8535V27.5123H23.8155C25.0734 27.5123 26.5403 25.4641 26.5403 25.4641L23.9062 25.4595ZM20.9952 21.2677C20.3834 21.2679 19.7954 21.0301 19.3557 20.6046H18.125V17.1985H19.3647C19.8034 16.7715 20.3921 16.5334 21.0043 16.5355C21.6165 16.5334 22.2051 16.7715 22.6438 17.1985H23.9244V20.6046H22.6438C22.2004 21.029 21.6089 21.2636 20.9952 21.2586V21.2677Z" fill="black" fill-opacity="0.87"/>
<path d="M20.9634 17.1259C20.7286 17.1259 20.4962 17.1722 20.2793 17.2622C20.0625 17.3522 19.8656 17.484 19.6997 17.6503C19.5339 17.8165 19.4026 18.0138 19.3132 18.2308C19.2237 18.4479 19.178 18.6805 19.1786 18.9152C19.1786 19.389 19.3665 19.8435 19.7011 20.1789C20.0356 20.5143 20.4896 20.7034 20.9634 20.7046C21.4379 20.7046 21.8931 20.5161 22.2287 20.1805C22.5642 19.8449 22.7528 19.3898 22.7528 18.9152C22.7533 18.68 22.7075 18.4471 22.6178 18.2298C22.5281 18.0124 22.3963 17.8149 22.23 17.6486C22.0637 17.4823 21.8662 17.3506 21.6489 17.2608C21.4315 17.1712 21.1986 17.1253 20.9634 17.1259ZM20.9634 20.1369C20.6394 20.1369 20.3286 20.0082 20.0996 19.7791C19.8704 19.55 19.7418 19.2392 19.7418 18.9152C19.7418 18.5912 19.8704 18.2805 20.0996 18.0514C20.3286 17.8223 20.6394 17.6935 20.9634 17.6935C21.1242 17.693 21.2836 17.7242 21.4323 17.7852C21.581 17.8464 21.7163 17.9363 21.8301 18.0498C21.9441 18.1632 22.0345 18.2981 22.0962 18.4467C22.1579 18.5952 22.1897 18.7544 22.1897 18.9152C22.1897 19.076 22.1579 19.2352 22.0962 19.3838C22.0345 19.5323 21.9441 19.6672 21.8301 19.7807C21.7163 19.8942 21.581 19.984 21.4323 20.0452C21.2836 20.1063 21.1242 20.1375 20.9634 20.1369Z" fill="black" fill-opacity="0.87"/>
<path d="M15.1685 26.2952C15.307 26.0348 15.3977 25.7518 15.4365 25.4595H12.5435V18.561H15.3865V17.3212C15.4005 17.2097 15.3883 17.0965 15.3511 16.9905C15.314 16.8844 15.2526 16.7885 15.1721 16.7102C15.0916 16.6319 14.994 16.5732 14.887 16.539C14.7799 16.5048 14.6665 16.4958 14.5554 16.5128H12.5435V14.4691H15.4365V12.3392C15.4107 11.8593 15.2215 11.4026 14.9006 11.0449L12.1121 8.25641C11.9699 8.11443 11.7771 8.03464 11.5762 8.03464C11.3753 8.03464 11.1825 8.11443 11.0403 8.25641L8.24275 11.054C7.9217 11.4099 7.73263 11.8651 7.70689 12.3437V13.7062C7.70689 14.1194 7.70689 14.4646 7.70689 14.4691C7.70689 14.4737 7.9521 14.233 8.24727 13.9378L11.0357 11.1493C11.178 11.0073 11.3707 10.9276 11.5717 10.9276C11.7726 10.9276 11.9653 11.0073 12.1075 11.1493L13.3837 12.4255H11.113C10.9002 12.4322 10.6909 12.4815 10.4974 12.5704C10.304 12.6593 10.1303 12.7861 9.98668 12.9432L8.22459 14.7053H10.4953V16.5219H7.65235V17.8026C7.64094 17.9086 7.65381 18.0158 7.69012 18.116C7.72643 18.2162 7.78522 18.3068 7.86188 18.3809C7.93854 18.455 8.03113 18.5105 8.13256 18.5433C8.23398 18.5761 8.3416 18.5852 8.44713 18.5701H10.4953V25.4686H7.65235C7.65235 25.4686 8.30633 27.5168 9.50981 27.5168H13.4745C13.586 27.5164 13.6971 27.5043 13.806 27.4805C14.299 27.3023 14.7233 26.9734 15.0186 26.5404L15.0459 26.4995L15.1276 26.3724C15.1435 26.3479 15.1572 26.322 15.1685 26.2952Z" fill="black" fill-opacity="0.87"/>
<path d="M13.9105 22.6574C14.6655 22.6574 15.2776 22.0454 15.2776 21.2904C15.2776 20.5354 14.6655 19.9235 13.9105 19.9235C13.1555 19.9235 12.5436 20.5354 12.5436 21.2904C12.5436 22.0454 13.1555 22.6574 13.9105 22.6574Z" fill="black" fill-opacity="0.87"/>
<path d="M9.16462 23.2524C9.48503 22.8943 9.67404 22.4378 9.70055 21.9581V19.2332L9.1601 19.769L8.19272 20.7409C7.87175 21.0986 7.68267 21.5553 7.65686 22.0353V24.7601L8.19731 24.2242L9.16462 23.2524Z" fill="black" fill-opacity="0.87"/>
<path d="M42.3356 15.3547H44.4929V20.641H42.3356V15.3547Z" fill="black" fill-opacity="0.87"/>
<path d="M45.8689 15.3547H49.5021C51.3186 15.3547 51.9681 16.0042 51.9681 16.7171C51.9681 17.4302 51.4322 17.8662 50.4285 18.007C51.7909 18.116 51.8818 18.6155 51.9045 19.324C51.9454 20.3685 52.0089 20.473 52.3177 20.5456V20.6138H49.988C49.8199 20.4367 49.7563 20.1369 49.7563 19.5374C49.7563 18.6291 49.5384 18.4293 48.8481 18.4293H48.0261V20.6138H45.8644L45.8689 15.3547ZM48.0306 17.58H48.6983C49.5702 17.58 49.8018 17.2031 49.8018 16.8943C49.8018 16.4947 49.5429 16.2267 48.6846 16.2267H48.0306V17.58Z" fill="black" fill-opacity="0.87"/>
<path d="M53.2442 15.3547H56.8774C58.694 15.3547 59.3479 16.0042 59.3479 16.7171C59.3479 17.4302 58.8075 17.8662 57.8039 18.007C59.1663 18.116 59.2571 18.6155 59.2798 19.324C59.3207 20.3685 59.3843 20.473 59.6931 20.5456V20.6138H57.3679C57.1998 20.4367 57.1362 20.1369 57.1362 19.5374C57.1362 18.6291 56.9182 18.4293 56.2279 18.4293H55.4059V20.6138H53.2442V15.3547ZM55.4059 17.58H56.0736C56.9455 17.58 57.1771 17.2031 57.1771 16.8943C57.1771 16.4947 56.9228 16.2267 56.0599 16.2267H55.4059V17.58Z" fill="black" fill-opacity="0.87"/>
<path d="M63.6397 20.7409C60.8013 20.7409 60.4152 19.6782 60.4152 18.016C60.4152 16.3539 60.8013 15.2684 63.6397 15.2684C66.7006 15.2684 66.8687 16.5491 66.8687 18.016C66.8687 19.4829 66.7006 20.7409 63.6397 20.7409ZM63.6397 19.9143C64.5117 19.9143 64.6388 19.4602 64.6388 17.9978C64.6388 16.5355 64.5117 16.0814 63.6397 16.0814C62.7678 16.0814 62.6633 16.5355 62.6633 17.9978C62.6633 19.4602 62.7813 19.8962 63.6124 19.8962L63.6397 19.9143Z" fill="black" fill-opacity="0.87"/>
<path d="M67.9995 15.3547H71.6327C73.449 15.3547 74.103 16.0042 74.103 16.7171C74.103 17.4302 73.5631 17.8662 72.5593 18.007C73.9214 18.116 74.0125 18.6155 74.0397 19.324C74.0758 20.3685 74.1398 20.473 74.4487 20.5456V20.6138H72.1231C71.9555 20.4367 71.8915 20.1369 71.8915 19.5374C71.8915 18.6291 71.6737 18.4293 70.983 18.4293H70.1614V20.6138H68.0041L67.9995 15.3547ZM70.1565 17.58H70.8243C71.696 17.58 71.9277 17.2031 71.9277 16.8943C71.9277 16.4947 71.6737 16.2267 70.8104 16.2267H70.1565V17.58Z" fill="black" fill-opacity="0.87"/>
<path d="M34.4244 21.4903L33.8931 18.0524H33.8658V21.4903H31.9402V15.3547H35.1192L35.9821 21.4993L34.4244 21.4903ZM38.4663 21.4903V18.0524H38.4436L37.9395 21.4903H36.5135L37.3492 15.3457H40.4737V21.4903H38.4663Z" fill="black" fill-opacity="0.87"/>
<path d="M42.2221 22.3123H47.5265V23.3205H44.3793V24.3786H47.3358V25.3823H44.3793V26.5903H47.6673V27.6167H42.2175L42.2221 22.3123Z" fill="black" fill-opacity="0.87"/>
<path d="M48.6256 22.3123H51.8046C53.9391 22.3123 54.8474 22.9481 54.8474 24.7828C54.8474 26.6993 54.4251 27.5985 51.5867 27.5985H48.6256V22.3123ZM50.7873 26.6812H51.3641C52.3678 26.6812 52.7266 26.4495 52.7266 24.8646C52.7266 23.5793 52.5494 23.2296 51.4049 23.2296H50.801L50.7873 26.6812Z" fill="black" fill-opacity="0.87"/>
<path d="M56.0599 22.3123H58.2171V27.6167H56.0599V22.3123Z" fill="black" fill-opacity="0.87"/>
<path d="M61.2918 22.3123H63.9894L66.2601 27.5985H64.0257L63.6942 26.5903H61.4961L61.1736 27.5985H58.9393L61.2918 22.3123ZM62.5997 23.2751L61.8413 25.6275H63.4081L62.5997 23.2751Z" fill="black" fill-opacity="0.87"/>
<path d="M31.9402 21.4903H33.8658V27.6167H31.9402V21.4903ZM35.369 27.594L34.4244 21.4903H35.964L36.2319 23.3886H36.2591L36.518 21.4903H37.9395L37.0312 27.594H35.369ZM38.4663 21.4903H40.4737V27.6167H38.4663V21.4903Z" fill="black" fill-opacity="0.87"/>
</g>
</g>
<defs>
<clipPath id="clip0_130_42">
<rect width="74.4348" height="32" fill="white"/>
</clipPath>
</defs>
</svg>
