<svg width="28" height="28" viewBox="0 0 28 28" fill="none" xmlns="http://www.w3.org/2000/svg">
<circle cx="14" cy="14" r="14" fill="white"/>
<path d="M15.1997 16.6465C14.4961 16.648 13.8111 16.4191 13.2485 15.9946C13.1651 15.9326 13.1095 15.8399 13.094 15.7368C13.0784 15.6337 13.1041 15.5286 13.1654 15.4445C13.1753 15.4304 13.6215 14.9793 13.6215 14.9793C13.6834 14.9128 13.7665 14.8704 13.8564 14.8596C13.9463 14.8487 14.0371 14.8701 14.1129 14.9199C14.4739 15.1788 14.9146 15.301 15.3568 15.2648C15.799 15.2285 16.2142 15.0362 16.5287 14.7219L18.6404 12.6007C19.2796 11.9587 19.4372 10.9362 18.9318 10.1839C18.3574 9.31564 17.1017 8.99038 16.1063 9.86857C15.9993 9.96331 14.8548 11.0847 14.8548 11.0847C14.8195 11.1202 14.7776 11.1484 14.7314 11.1676C14.6853 11.1868 14.6358 11.1967 14.5859 11.1967C14.536 11.1967 14.4865 11.1868 14.4404 11.1676C14.3942 11.1484 14.3523 11.1202 14.317 11.0847V11.0847L13.8947 10.6605C13.8231 10.5884 13.783 10.4908 13.783 10.389C13.783 10.2872 13.8231 10.1896 13.8947 10.1175L14.9843 9.02432C16.1739 7.82513 18.1195 7.62715 19.4189 8.70614C20.082 9.25372 20.5014 10.0433 20.5851 10.9014C20.6688 11.7595 20.4099 12.6159 19.8652 13.2823C19.7976 13.3643 17.4832 15.6962 17.4832 15.6962C16.8771 16.3039 16.056 16.6455 15.1997 16.6465Z" fill="black"/>
<path d="M13.4048 11.9502C14.1103 11.9478 14.7973 12.1778 15.3602 12.605C15.4435 12.6668 15.499 12.7593 15.5146 12.8621C15.5302 12.9649 15.5045 13.0698 15.4433 13.1537C15.4334 13.1692 14.9872 13.6203 14.9872 13.6203C14.9254 13.6858 14.8427 13.7276 14.7536 13.7385C14.6644 13.7493 14.5742 13.7285 14.4986 13.6797C14.1377 13.4205 13.6969 13.2982 13.2547 13.3344C12.8124 13.3707 12.3972 13.5631 12.0828 13.8777L9.9711 15.9989C9.32491 16.6395 9.16582 17.662 9.67264 18.4157C10.2456 19.2826 11.5028 19.6092 12.4981 18.7311C12.6051 18.6363 13.7497 17.5135 13.7497 17.5135C13.785 17.478 13.8269 17.4498 13.873 17.4306C13.9192 17.4114 13.9686 17.4015 14.0186 17.4015C14.0685 17.4015 14.118 17.4114 14.1641 17.4306C14.2103 17.4498 14.2522 17.478 14.2875 17.5135L14.7098 17.9377C14.7808 18.0104 14.8205 18.1081 14.8205 18.2099C14.8205 18.3117 14.7808 18.4095 14.7098 18.4822L13.6202 19.5753C12.4292 20.7745 10.4835 20.9725 9.18412 19.8935C8.52047 19.3465 8.1002 18.5572 8.01573 17.6991C7.93125 16.841 8.18947 15.9843 8.73362 15.3173C8.8012 15.2339 11.1157 12.9034 11.1157 12.9034C11.4159 12.6008 11.7726 12.3609 12.1655 12.1973C12.5583 12.0337 12.9795 11.9498 13.4048 11.9502V11.9502Z" fill="black"/>
</svg>
