<svg width="32" height="29" viewBox="0 0 32 29" fill="none" xmlns="http://www.w3.org/2000/svg">
<path d="M14.2898 19.7842L7.2225 24.651V19.7842H1.88325V0H0V21.6675H5.17725V28.8967L15.39 21.6675H31.4078V19.7842H14.2898Z" fill="white"/>
<path d="M16.0313 24.894V23.706H16.3621C16.6051 23.706 16.8008 23.7465 16.9561 23.8342C17.1113 23.922 17.1856 24.0637 17.1856 24.2595C17.1856 24.4552 17.1046 24.624 16.9358 24.732C16.7671 24.84 16.5511 24.894 16.2743 24.894H16.0313ZM16.3621 23.0782H15.2213V26.8852H16.0246V25.4948H16.2811L17.3881 26.8852H18.3871L17.0978 25.3462C17.3881 25.245 17.6041 25.1033 17.7593 24.921C17.9146 24.7388 17.9888 24.5092 17.9888 24.2392C17.9888 24.0637 17.9483 23.8882 17.8673 23.7262C17.7863 23.5777 17.6716 23.4562 17.5298 23.3617C17.3746 23.2605 17.1991 23.1862 17.0168 23.1457C16.8008 23.0985 16.5781 23.0782 16.3621 23.0782Z" fill="white"/>
<path d="M21.0804 23.0782H18.7921V26.8852H21.1006V26.2507H19.5954V25.2652H21.0129V24.6307H19.5954V23.7127H21.0804V23.0782Z" fill="white"/>
<path d="M22.8083 25.4542L23.382 23.7195L23.9558 25.4542H22.8083ZM23.814 23.085H22.9433L21.4988 26.892H22.329L22.599 26.0887H24.165L24.435 26.892H25.2653L23.814 23.085Z" fill="white"/>
<path d="M26.5816 26.2575V23.7195H26.9461C27.1351 23.7195 27.3241 23.7465 27.5063 23.8073C27.6683 23.8613 27.8236 23.9422 27.9518 24.057C28.0801 24.165 28.1746 24.3 28.2421 24.4552C28.3771 24.7927 28.3771 25.1775 28.2421 25.5217C28.1746 25.677 28.0733 25.812 27.9518 25.92C27.8236 26.0347 27.6683 26.1158 27.5063 26.1698C27.3241 26.2305 27.1351 26.2575 26.9461 26.2575H26.5816ZM26.9798 23.0782C26.9596 23.0782 26.9461 23.0782 26.9258 23.0782H25.7783V26.8785H26.9258C26.9461 26.8785 26.9663 26.8785 26.9866 26.8785C27.2768 26.8785 27.5603 26.8312 27.8371 26.7367C28.0936 26.649 28.3298 26.514 28.5323 26.3385C28.7213 26.1765 28.8766 25.9672 28.9778 25.7377C29.1871 25.2585 29.1871 24.705 28.9778 24.219C28.8766 23.9895 28.7213 23.787 28.5323 23.6182C28.3298 23.4427 28.0936 23.3077 27.8371 23.22C27.5603 23.1322 27.2701 23.0782 26.9798 23.0782Z" fill="white"/>
<path d="M31.1716 24.0772C30.9758 24.0772 30.8206 24.1177 30.7058 24.2122C30.5843 24.3135 30.4966 24.4485 30.4493 24.597V24.1042H29.7001V26.892H30.4831V25.1302C30.5641 25.0155 30.6653 24.9277 30.7936 24.867C30.9218 24.8062 31.0838 24.7725 31.2796 24.7725H31.4078V24.1042C31.3268 24.084 31.2526 24.0772 31.1716 24.0772Z" fill="white"/>
<path d="M14.0063 15.7882C12.3458 16.1392 10.7393 16.497 9.18005 16.848C9.2813 17.0032 9.38255 17.226 9.4838 17.5297L9.78755 18.1372C11.4211 17.8065 13.0343 17.3745 14.6071 16.848L14.0063 15.7882ZM12.1298 14.5125V13.6822H18.8461V14.5125H12.1298ZM12.1298 12.6967V11.8665H18.8461V12.6967H12.1298ZM12.1298 10.9552V10.0507H18.8461V10.9552H12.1298ZM20.5808 8.991H10.3951V15.6465H16.8008L16.2001 16.7737C18.2588 17.4285 19.9463 17.8875 21.2558 18.1372L21.7823 16.7737C20.1286 16.4227 18.4681 16.0447 16.8143 15.6397H20.5808V8.991ZM9.11255 8.7615H3.9083V10.1992H9.11255V8.7615ZM9.11255 6.04125H3.9083V7.479H9.11255V6.04125ZM11.4481 7.182V6.048H13.1828V7.182H11.4481ZM14.5463 7.182V6.048H16.4296V7.182H14.5463ZM17.7121 7.182V6.048H19.5953V7.182H17.7121ZM21.1073 5.13675H9.86855V8.16075H21.1073V5.13675ZM9.5648 3.24675H3.45605V4.833H9.5648V3.24675ZM8.8088 0.600751H4.27955V2.0385H8.8088V0.600751ZM16.4296 0H14.5463V1.134H9.63905V2.34225H14.5396V3.24675H10.2398V4.3065H20.7293V3.24675H16.4296V2.34225H21.4853V1.134H16.4296V0Z" fill="white"/>
<path d="M5.4878 16.4632V13.0005H7.60054V16.4632H5.4878ZM9.03829 11.4885H3.98254V17.8402H9.03829V11.4885Z" fill="white"/>
<path d="M27.9518 0H26.0685V3.44925H22.6125V5.33925H26.0685V8.79525H27.9518V5.33925H31.4078V3.44925H27.9518V0Z" fill="white"/>
</svg>
