<svg width="200" height="200" viewBox="0 0 200 200" fill="none" xmlns="http://www.w3.org/2000/svg">
<circle cx="100" cy="100" r="100" fill="#E4E4E4"/>
<mask id="mask0_75_88" style="mask-type:alpha" maskUnits="userSpaceOnUse" x="0" y="0" width="200" height="200">
<circle cx="100" cy="100" r="100" fill="#D9D9D9"/>
</mask>
<g mask="url(#mask0_75_88)">
<path d="M125.42 113.459H79.3688V165.482H125.42V113.459Z" fill="#CACACA"/>
<path d="M147.502 76.936C144.96 70.8541 139.767 73.8482 139.767 73.8482C142.761 46.2301 128.726 28 102.386 28C76.0471 28 62.0119 46.2301 65.0061 73.8482C65.0061 73.8482 59.8131 70.8697 57.2711 76.936C54.7292 83.0023 59.3764 97.2558 62.2458 101.794C65.1153 106.316 70.1991 109.747 70.1991 109.747C70.1991 109.747 70.5266 114.831 71.8521 118.355C73.1777 121.895 88.1953 138.145 92.6086 140.625C98.3942 144.04 106.94 144.04 112.133 140.625C116.546 138.145 131.58 121.895 132.89 118.355C134.215 114.815 134.543 109.747 134.543 109.747C134.543 109.747 139.626 106.316 142.496 101.794C145.365 97.2714 150.012 83.0179 147.471 76.936H147.502Z" fill="#CACACA"/>
<path d="M102.62 143.743C99.0024 143.743 95.3065 142.87 92.3279 141.124C89.6612 139.627 83.5014 133.467 78.9321 128.383L79.8054 127.603C84.4682 132.78 90.4722 138.738 92.9205 140.11C98.519 143.4 106.831 143.416 111.837 140.126C114.332 138.722 120.336 132.765 124.983 127.603L125.856 128.383C121.272 133.467 115.127 139.611 112.445 141.124C109.794 142.87 106.254 143.743 102.62 143.743Z" fill="#ACACAC"/>
<path d="M69.3398 97.8191L68.179 97.9623L69.6391 109.802L70.7999 109.659L69.3398 97.8191Z" fill="#ACACAC"/>
<path d="M135.363 97.8343L134.045 109.676L135.207 109.805L136.525 97.9637L135.363 97.8343Z" fill="#ACACAC"/>
<path d="M60.6864 90.5969C60.4369 89.708 58.3784 81.7859 61.2322 79.6183C62.1835 79.0101 62.9476 79.0724 63.431 79.2284C64.8813 79.6962 65.6143 81.5052 65.6923 81.7079L64.6006 82.129C64.4447 81.7235 63.8521 80.6007 63.0724 80.3512C62.7137 80.2265 62.3238 80.32 61.9028 80.5851C60.2653 81.8327 60.9671 87.2129 61.8092 90.3006L60.6864 90.6125V90.5969Z" fill="#ACACAC"/>
<path d="M144.102 90.5969L142.979 90.285C143.821 87.1973 144.539 81.8171 142.855 80.5539C142.465 80.3044 142.075 80.2265 141.716 80.3356C140.78 80.6475 140.188 82.0978 140.188 82.1134L139.096 81.6923C139.174 81.4896 139.907 79.6962 141.357 79.2128C141.841 79.0569 142.621 78.9945 143.525 79.5871C146.41 81.7703 144.352 89.6924 144.102 90.5813V90.5969Z" fill="#ACACAC"/>
<path d="M176.788 170.13C152.211 159.167 125.42 155.283 125.42 155.283C113.131 168.102 90.2226 168.274 79.3687 155.283C79.3687 155.283 52.5772 159.167 28 170.13C43.2827 195.206 70.8853 211.97 102.402 211.97C133.919 211.97 161.521 195.221 176.804 170.13H176.788Z" fill="#858585"/>
<path d="M68.1549 88.9999C76.0174 89.0472 70.0695 63.5662 76.2371 57.389C79.3758 54.2531 83.9426 54.7732 87.866 55.7659C92.4328 56.932 97.1566 58.5236 101.975 58.6497C107.075 58.7915 111.924 56.9005 116.821 55.7186C120.618 54.7889 124.746 54.3792 127.759 57.389C133.927 63.5505 127.979 89.0315 135.841 88.9999C135.292 83.1064 135.276 76.6613 139.592 74.3291C142.637 46.4213 128.497 28 102.006 28C75.5152 28 61.3753 46.4213 64.4041 74.3291C67.9038 76.614 68.7042 82.8385 68.1549 88.9999Z" fill="#ACACAC"/>
</g>
</svg>
